<svg xmlns="http://www.w3.org/2000/svg" viewBox="532.8 441.85 2400 2400">
  <!-- dailymattr mark (brand blue #3979FF on white). Source artwork was
       3467x3286; the viewBox is squared and centred on the glyphs, with the
       padding trimmed so the mark still reads at 16px in a browser tab. -->
  <rect x="532.8" y="441.85" width="2400" height="2400" rx="200" fill="white"/>
  <path d="M1628.31 1579.16V772.766H814.537V1803.89C814.537 1924.26 842.942 2043.3 900.307 2149.12C939.642 2221.67 997.077 2297.55 1080.9 2363.34C1318.78 2550.06 1585.49 2510.93 1628.38 2503.9V2189.22C1598.72 2187.48 1410.75 2173.21 1283.42 2011.07C1132.55 1819.06 1201.41 1590.99 1207.53 1571.78C1320.94 1574.21 1514.9 1576.72 1628.38 1579.16H1628.31Z" fill="#3979FF"/>
  <path d="M2651 1579.16V772.766H1837.23V1803.89C1837.23 1924.26 1865.64 2043.3 1923 2149.12C1962.34 2221.67 2019.77 2297.55 2103.59 2363.34C2341.48 2550.06 2608.19 2510.93 2651.07 2503.9V2189.22C2621.42 2187.48 2433.45 2173.21 2306.12 2011.07C2155.25 1819.06 2224.1 1590.99 2230.23 1571.78C2343.64 1574.21 2537.6 1576.72 2651.07 1579.16H2651Z" fill="#3979FF"/>
</svg>
