<svg preserveAspectRatio="none" width="100%" height="100%" overflow="visible" style="display: block;" viewBox="0 0 18 18" fill="none" xmlns="http://www.w3.org/2000/svg">
<g id="direct-inbox">
<path id="Vector" d="M9 1.5V6.75L10.5 5.25" stroke="var(--stroke-0, white)" stroke-width="1.5" stroke-linecap="round" stroke-linejoin="round"/>
<path id="Vector_2" d="M9 6.75L7.5 5.25" stroke="var(--stroke-0, white)" stroke-width="1.5" stroke-linecap="round" stroke-linejoin="round"/>
<path id="Vector_3" d="M1.48438 9.75H4.79187C5.07687 9.75 5.33188 9.9075 5.45938 10.1625L6.33687 11.9175C6.59187 12.4275 7.10938 12.75 7.67938 12.75H10.3269C10.8969 12.75 11.4144 12.4275 11.6694 11.9175L12.5469 10.1625C12.6744 9.9075 12.9369 9.75 13.2144 9.75H16.4844" stroke="var(--stroke-0, white)" stroke-width="1.5" stroke-linecap="round" stroke-linejoin="round"/>
<path id="Vector_4" d="M5.25 3.0975C2.595 3.4875 1.5 5.0475 1.5 8.25V11.25C1.5 15 3 16.5 6.75 16.5H11.25C15 16.5 16.5 15 16.5 11.25V8.25C16.5 5.0475 15.405 3.4875 12.75 3.0975" stroke="var(--stroke-0, white)" stroke-width="1.5" stroke-linecap="round" stroke-linejoin="round"/>
<g id="Vector_5" opacity="0">
</g>
</g>
</svg>
