<svg preserveAspectRatio="none" width="100%" height="100%" overflow="visible" style="display: block;" viewBox="0 0 16 16" fill="none" xmlns="http://www.w3.org/2000/svg">
<g id="02.YouTube">
<path id="Background" d="M8 16C12.4183 16 16 12.4183 16 8C16 3.58172 12.4183 0 8 0C3.58172 0 0 3.58172 0 8C0 12.4183 3.58172 16 8 16Z" fill="var(--fill-0, #FF0000)"/>
<g id="Shadow">
<path id="Vector" d="M9.10957 8.00224L6.89062 9.28961V6.70856L9.10957 8.00224Z" fill="url(#paint0_linear_0_10)"/>
<path id="Vector_2" d="M15.848 9.55909C15.5393 11.108 14.7795 12.531 13.6642 13.6492C12.5488 14.7674 11.1277 15.5308 9.57955 15.8433L4.41113 10.6749C4.68988 10.8922 5.03348 11.0097 5.38692 11.0086H10.6227C11.0446 11.0075 11.4487 10.839 11.7465 10.5402C12.0443 10.2415 12.2114 9.83673 12.2111 9.41488V6.5833C12.2124 6.16878 12.0515 5.7702 11.7627 5.47278L15.848 9.55909Z" fill="url(#paint1_linear_0_10)"/>
</g>
<path id="Icon" d="M10.6175 4.99054H5.38169C5.17246 4.99054 4.96527 5.03177 4.77198 5.11187C4.57868 5.19198 4.40306 5.30938 4.25516 5.45738C4.10726 5.60538 3.98997 5.78108 3.90999 5.97443C3.83002 6.16778 3.78892 6.37499 3.78906 6.58422V9.4158C3.78892 9.62504 3.83002 9.83225 3.90999 10.0256C3.98997 10.2189 4.10726 10.3946 4.25516 10.5426C4.40306 10.6906 4.57868 10.8081 4.77198 10.8882C4.96527 10.9683 5.17246 11.0095 5.38169 11.0095H10.6175C10.8267 11.0095 11.0339 10.9683 11.2272 10.8882C11.4205 10.8081 11.5961 10.6906 11.744 10.5426C11.8919 10.3946 12.0092 10.2189 12.0892 10.0256C12.1692 9.83225 12.2103 9.62504 12.2101 9.4158V6.58422C12.2103 6.37499 12.1692 6.16778 12.0892 5.97443C12.0092 5.78108 11.8919 5.60538 11.744 5.45738C11.5961 5.30938 11.4205 5.19198 11.2272 5.11187C11.0339 5.03177 10.8267 4.99054 10.6175 4.99054ZM6.89012 9.29054V6.70949L9.10906 8.00001L6.89012 9.29054Z" fill="var(--fill-0, white)"/>
</g>
<defs>
<linearGradient id="paint0_linear_0_10" x1="6.47694" y1="7.12224" x2="8.23273" y2="8.87908" gradientUnits="userSpaceOnUse">
<stop stop-color="#B71C1C"/>
<stop offset="1" stop-color="#B71C1C" stop-opacity="0"/>
</linearGradient>
<linearGradient id="paint1_linear_0_10" x1="7.54587" y1="7.53594" x2="13.6617" y2="13.6507" gradientUnits="userSpaceOnUse">
<stop stop-color="#B71C1C"/>
<stop offset="1" stop-color="#B71C1C" stop-opacity="0"/>
</linearGradient>
</defs>
</svg>
