<svg preserveAspectRatio="none" width="100%" height="100%" overflow="visible" style="display: block;" viewBox="0 0 16 16" fill="none" xmlns="http://www.w3.org/2000/svg">
<g id="02.YouTube">
<path id="Background" d="M8 16C12.4183 16 16 12.4183 16 8C16 3.58172 12.4183 0 8 0C3.58172 0 0 3.58172 0 8C0 12.4183 3.58172 16 8 16Z" fill="var(--fill-0, #FF0000)"/>
<g id="Shadow">
<path id="Vector" d="M9.10957 8.00218L6.89062 9.28955V6.7085L9.10957 8.00218Z" fill="url(#paint0_linear_0_16)"/>
<path id="Vector_2" d="M15.848 9.55903C15.5393 11.1079 14.7795 12.531 13.6642 13.6492C12.5488 14.7673 11.1277 15.5307 9.57955 15.8432L4.41113 10.6748C4.68988 10.8921 5.03348 11.0096 5.38692 11.0085H10.6227C11.0446 11.0074 11.4487 10.839 11.7465 10.5402C12.0443 10.2414 12.2114 9.83667 12.2111 9.41482V6.58324C12.2124 6.16872 12.0515 5.77014 11.7627 5.47272L15.848 9.55903Z" fill="url(#paint1_linear_0_16)"/>
</g>
<path id="Icon" d="M10.6175 4.99048H5.38169C5.17246 4.99048 4.96527 5.03171 4.77198 5.11181C4.57868 5.19191 4.40306 5.30932 4.25516 5.45732C4.10726 5.60532 3.98997 5.78102 3.90999 5.97437C3.83002 6.16771 3.78892 6.37493 3.78906 6.58416V9.41574C3.78892 9.62498 3.83002 9.83219 3.90999 10.0255C3.98997 10.2189 4.10726 10.3946 4.25516 10.5426C4.40306 10.6906 4.57868 10.808 4.77198 10.8881C4.96527 10.9682 5.17246 11.0094 5.38169 11.0094H10.6175C10.8267 11.0094 11.0339 10.9682 11.2272 10.8881C11.4205 10.808 11.5961 10.6906 11.744 10.5426C11.8919 10.3946 12.0092 10.2189 12.0892 10.0255C12.1692 9.83219 12.2103 9.62498 12.2101 9.41574V6.58416C12.2103 6.37493 12.1692 6.16771 12.0892 5.97437C12.0092 5.78102 11.8919 5.60532 11.744 5.45732C11.5961 5.30932 11.4205 5.19191 11.2272 5.11181C11.0339 5.03171 10.8267 4.99048 10.6175 4.99048ZM6.89012 9.29048V6.70943L9.10906 7.99995L6.89012 9.29048Z" fill="var(--fill-0, white)"/>
</g>
<defs>
<linearGradient id="paint0_linear_0_16" x1="6.47694" y1="7.12218" x2="8.23273" y2="8.87902" gradientUnits="userSpaceOnUse">
<stop stop-color="#B71C1C"/>
<stop offset="1" stop-color="#B71C1C" stop-opacity="0"/>
</linearGradient>
<linearGradient id="paint1_linear_0_16" x1="7.54587" y1="7.53588" x2="13.6617" y2="13.6506" gradientUnits="userSpaceOnUse">
<stop stop-color="#B71C1C"/>
<stop offset="1" stop-color="#B71C1C" stop-opacity="0"/>
</linearGradient>
</defs>
</svg>
